<svg aria-hidden="true" style="position: absolute; width: 0; height: 0; overflow: hidden;" version="1.1" xmlns="http://www.w3.org/2000/svg" xmlns:xlink="http://www.w3.org/1999/xlink">
<defs>
<symbol id="icon-image" viewBox="0 0 32 32">
<path d="M9.999 14.667c1.105 0 2-0.895 2-2s-0.895-2-2-2c-1.105 0-2 0.895-2 2s0.895 2 2 2z"></path>
<path d="M13.999 18.667l-2-2.667-4 5.333h16l-6-8-4 5.333z"></path>
<path d="M26.665 5.333h-21.333c-1.471 0-2.667 1.196-2.667 2.667v16c0 1.471 1.196 2.667 2.667 2.667h21.333c1.471 0 2.667-1.196 2.667-2.667v-16c0-1.471-1.196-2.667-2.667-2.667zM5.332 24v-16h21.333l0.003 16h-21.336z"></path>
</symbol>
<symbol id="icon-tank" viewBox="0 0 85 32">
<path fill="#bc631e" style="fill: var(--color1, #bc631e)" opacity="0.24" d="M0.099 19.141l1.975 4.539c0 0.033 0 0.066 0 0.099 0 1.809 0.691 3.059 2.337 4.144 1.152 0.789 3.917 1.71 5.925 2.401 0.592 0.197 1.119 0.395 1.448 0.526 0.197 0.066 0.395 0.165 0.56 0.23 1.152 0.46 2.271 0.888 4.575 0.888h51.642c0.197 0 0.395 0 0.559 0 0.132 0 0.263 0 0.395 0 0.658 0 1.185-0.066 2.304-0.493 1.58-0.592 6.813-2.96 8.986-4.144 0.559-0.329 1.843-1.25 1.975-3.256l2.205-4.341c0.23-0.428 0.132-0.954-0.197-1.283l-2.469-2.467c-0.197-0.197-0.494-0.329-0.79-0.329h-7.735c0.099-0.23 0.231-0.592 0.296-0.822 0.165 0.066 0.362 0.132 0.559 0.164 0.165 0.033 0.296-0.099 0.296-0.263v-3.091c0-0.164-0.132-0.296-0.296-0.263-1.053 0.164-1.876 1.052-1.876 1.809 0 0.23 0.066 0.46 0.197 0.691l-0.658 0.395c-0.296-1.184-0.987-2.697-1.514-2.697-0.428 0-1.975 0-2.995 0v-0.428c0-0.329-0.263-0.592-0.592-0.592h-1.547l-0.724-0.46h3.621c0.625 0 1.119-0.23 1.481-0.592h13.923c0.461 0 0.856-0.362 0.856-0.855v-1.052c0-0.46-0.362-0.855-0.856-0.855h-13.923c-0.263-0.263-0.593-0.46-0.987-0.526-0.263-1.973-1.481-2.138-1.909-2.138h-2.831c-0.658-1.052-1.744-1.907-3.291-2.171 0-0.033 0-0.033 0-0.066 0-0.493-0.395-0.855-0.856-0.855s-0.856 0.362-0.856 0.822h-2.139l-0.559-0.559c0 0 0-0.395 0-0.789s-0.494-0.493-0.955-0.493c-0.461 0-0.955 0.099-0.955 0.493s0 0.789 0 0.789l-0.559 0.559h-4.871l-0.889-0.888h-0.56v-0.493h0.329v-0.395h-2.435v0.395h0.329v0.526h-0.56l-0.889 0.888h-3.127c-0.033-0.46-0.395-0.822-0.856-0.822s-0.856 0.362-0.856 0.822h-0.329c-1.020 0-1.975 0.559-2.469 1.447l-2.897 5.328h-20.571c-0.329 0-0.658 0.164-0.856 0.428l-2.6 3.256h-2.666c-0.23 0-0.461 0.066-0.658 0.23l-2.896 2.138c-0.461 0.329-0.592 0.954-0.296 1.414l0.099 0.197-2.995 1.447c-0.527 0.263-0.757 0.888-0.527 1.414zM47.725 0.197c-0.197 0.033-0.428 0.033-0.691 0.033s-0.494-0.033-0.691-0.033c-0.198-0.033-0.296-0.033-0.296-0.033s0.132-0.033 0.296-0.033c0.197-0.033 0.428-0.033 0.691-0.033s0.494 0 0.691 0.033 0.296 0.033 0.296 0.033c0 0-0.132 0.033-0.296 0.033zM56.546 0.822c0 0.099-0.033 0.23-0.033 0.296-0.033 0.066-0.033 0.132-0.033 0.132s-0.033-0.066-0.033-0.132c-0.033-0.066-0.033-0.197-0.033-0.296s0-0.23 0.033-0.296c0.033-0.066 0.033-0.132 0.033-0.132s0.033 0.066 0.033 0.132c0 0.066 0.033 0.164 0.033 0.296zM20.012 30.52v0.395c-0.56 0-1.053 0-1.481 0 1.679-0.625 2.962-2.039 3.39-3.782h2.6c0.428 1.743 1.711 3.19 3.39 3.782-0.559 0-1.086 0-1.613 0v-0.395c0-0.164-0.132-0.329-0.329-0.329h-0.428c-0.165 0-0.329 0.131-0.329 0.329v0.395c-1.58 0-2.995 0-4.18 0v-0.395c0-0.164-0.132-0.329-0.329-0.329h-0.428c-0.132 0-0.263 0.131-0.263 0.329zM33.078 30.52v0.395c-0.527 0-1.020 0-1.514 0 1.679-0.625 2.962-2.039 3.39-3.782h2.6c0.428 1.743 1.712 3.19 3.39 3.782-0.527 0-1.053 0-1.58 0v-0.395c0-0.164-0.131-0.329-0.329-0.329h-0.428c-0.165 0-0.329 0.131-0.329 0.329v0.395c-1.415 0-2.831 0-4.18 0v-0.395c0-0.164-0.132-0.329-0.329-0.329h-0.428c-0.099 0-0.263 0.131-0.263 0.329zM46.145 30.52v0.395c-0.527 0-1.020 0-1.547 0 1.679-0.625 2.962-2.039 3.39-3.782h2.6c0.428 1.743 1.712 3.19 3.39 3.782-0.494 0-1.020 0-1.547 0v-0.395c0-0.164-0.131-0.329-0.329-0.329h-0.428c-0.165 0-0.329 0.131-0.329 0.329v0.395c-1.349 0-2.765 0-4.18 0v-0.395c0-0.164-0.132-0.329-0.329-0.329h-0.428c-0.099 0-0.263 0.131-0.263 0.329zM59.245 30.52v0.395c-0.527 0-1.053 0-1.58 0 1.679-0.625 2.962-2.039 3.39-3.782h2.6c0.428 1.743 1.711 3.19 3.39 3.782-0.428 0-0.955 0-1.514 0v-0.395c0-0.164-0.131-0.329-0.329-0.329h-0.428c-0.165 0-0.329 0.131-0.329 0.329v0.395c-1.185 0-2.6 0-4.18 0v-0.395c0-0.164-0.132-0.329-0.329-0.329h-0.428c-0.132 0-0.263 0.131-0.263 0.329zM84.424 8.156v0.493c0 0.066 0 0.164-0.033 0.23-0.066 0.132-0.23 0.23-0.395 0.23h-0.329c-0.428 0-0.889 0-1.317 0-0.856 0-1.711 0-2.534 0-1.646 0-3.193-0.033-4.509-0.033-1.316-0.033-2.403-0.033-3.193-0.066-0.757-0.033-1.218-0.033-1.218-0.033s0.428 0 1.218-0.033c0.757 0 1.876-0.033 3.193-0.066 1.317 0 2.864-0.033 4.509-0.033 0.823 0 1.679 0 2.534 0 0.428 0 0.856 0 1.317 0h0.329c0.066 0 0.132-0.033 0.165-0.099 0-0.033 0.033-0.033 0.033-0.099v-0.493h-13.561c0-0.296-0.066-0.559-0.165-0.822h0.527c0 0 0.428 0 1.218-0.033 0.757 0 1.876-0.033 3.193-0.066 1.317 0 2.863-0.033 4.509-0.033 0.823 0 1.679 0 2.535 0 0.428 0 0.856 0 1.317 0h0.329c0.165 0 0.329 0.099 0.362 0.263 0 0.033 0.033 0.066 0.033 0.132 0 0.033 0 0.033 0 0.066v0.197l-0.066 0.296zM64.084 6.841c0 0 0 0.033 0 0-0.066 0.066-0.132 0.132-0.231 0.164-0.099 0.066-0.197 0.132-0.329 0.164-0.132 0.066-0.296 0.132-0.461 0.164s-0.329 0.099-0.527 0.164c-0.362 0.099-0.79 0.197-1.185 0.263-0.197 0.033-0.395 0.066-0.625 0.099-0.197 0.033-0.395 0.066-0.592 0.066-0.395 0.033-0.757 0.066-1.086 0.099-0.625 0.033-1.053 0.066-1.053 0.066s0.428 0.033 1.053 0.066c0.329 0 0.691 0.033 1.086 0.033 0.197 0 0.395 0 0.625 0 0.197 0 0.428-0.033 0.625-0.033 0.428-0.033 0.856-0.066 1.251-0.132 0.197-0.033 0.395-0.066 0.593-0.099s0.362-0.066 0.527-0.132c0.099-0.033 0.197-0.066 0.263-0.099-0.066 0.263-0.165 0.493-0.263 0.724h-24.192c0.099-0.395 0.197-0.789 0.329-1.151l19.551-0.395-19.255-0.395c0.198-0.526 0.428-1.020 0.658-1.447l18.597-0.362-18.201-0.362c0.296-0.493 0.559-0.921 0.79-1.217-0.329 0-0.658-0.033-0.987-0.033-0.527 0-0.987-0.033-1.415-0.066-0.23 0-0.395-0.033-0.559 0s-0.329 0.099-0.461 0.164c-0.263 0.132-0.428 0.296-0.527 0.428s-0.132 0.197-0.132 0.197 0.033-0.066 0.132-0.23c0.099-0.132 0.23-0.329 0.527-0.493 0.132-0.066 0.296-0.164 0.494-0.197 0.197-0.066 0.395-0.066 0.592-0.066 0.428-0.033 0.889-0.033 1.415-0.066 1.053-0.033 2.271-0.066 3.555-0.099 0.658 0 1.317 0 2.008-0.033 0.691 0 1.382 0 2.073 0s1.382 0 2.074 0c0.691 0 1.349 0 2.008 0.033 1.317 0.033 2.534 0.033 3.555 0.099 1.053 0.033 1.909 0.066 2.534 0.099 0.593 0.033 0.955 0.066 0.955 0.066 2.995 0.033 4.081 2.105 4.213 3.947zM64.775 4.933c0.79 0 1.744 0 2.403 0 0.724 0 0.987 0.756 1.086 1.414l-2.929 0.658h2.962c0.132 0 0.231 0 0.296 0 0 0 0.033 0 0.066 0 0.066 0 0.132 0 0.231 0s0.23 0.033 0.362 0.099 0.263 0.164 0.362 0.329c0.099 0.164 0.165 0.329 0.197 0.559 0 0.099 0 0.197 0 0.296s-0.033 0.23-0.066 0.329-0.197 0.428-0.428 0.559c-0.197 0.132-0.461 0.197-0.691 0.197s-0.461 0-0.691 0c-0.23 0-0.428 0-0.658 0-0.428 0-0.823-0.033-1.152-0.033s-0.625-0.033-0.823-0.066c-0.197 0-0.296-0.033-0.296-0.033s0.099-0.033 0.296-0.033c0.197-0.033 0.494-0.033 0.823-0.066s0.724-0.033 1.152-0.033c0.428 0 0.889 0 1.317 0 0.197 0 0.428-0.033 0.592-0.132s0.296-0.263 0.362-0.428c0.033-0.099 0.066-0.197 0.066-0.263s0-0.099 0-0.132h-4.608c0.066-0.296 0.132-0.625 0.132-0.987 0.066-0.756-0.099-1.513-0.362-2.236zM71.884 15.753h-7.077c0.066-0.099 0.099-0.197 0.099-0.296v-1.973c0-0.296-0.231-0.559-0.56-0.559h-2.962v-0.164c0-0.164-0.131-0.263-0.263-0.263-0.165 0-0.263 0.132-0.263 0.263v0.164h-12.145v-0.164c0-0.164-0.132-0.263-0.263-0.263-0.165 0-0.263 0.132-0.263 0.263v0.164h-12.145v-0.164c0-0.164-0.131-0.263-0.263-0.263-0.165 0-0.263 0.132-0.263 0.263v0.164h-2.107c-0.296 0-0.559 0.23-0.559 0.559v1.973c0 0.099 0.033 0.23 0.099 0.296h-0.165c0 0-0.428 0-1.218 0.033-0.395 0-0.856 0-1.415 0.033 0.099-0.099 0.132-0.23 0.132-0.362v-1.973c0-0.296-0.231-0.559-0.56-0.559h-0.955v-0.164c0-0.164-0.131-0.263-0.263-0.263-0.165 0-0.263 0.132-0.263 0.263v0.164h-4.279v-0.164c0-0.164-0.131-0.263-0.263-0.263-0.165 0-0.263 0.132-0.263 0.263v0.164h-4.279v-0.164c0-0.164-0.132-0.263-0.263-0.263-0.165 0-0.263 0.132-0.263 0.263v0.164h-0.625c-0.296 0-0.56 0.23-0.56 0.559v1.973c0 0.197 0.099 0.362 0.23 0.46-1.415 0-2.831 0-4.147 0-1.646 0-3.193-0.033-4.509-0.033-1.317-0.033-2.436-0.033-3.193-0.066s-1.218-0.033-1.218-0.033c0 0 0.428 0 1.218-0.033 0.757 0 1.876-0.033 3.193-0.066 1.317 0 2.864-0.033 4.509-0.033 0.099 0 0.197 0 0.329 0 0.56-0.954 1.119-1.842 1.646-2.565-1.185 0-2.271-0.033-3.258-0.033-1.317-0.033-2.436-0.033-3.193-0.066s-1.218-0.033-1.218-0.033c0 0 0.428 0 1.218-0.033 0.757 0 1.876-0.033 3.193-0.066 1.020 0 2.205-0.033 3.456-0.033 0.23-0.329 0.461-0.625 0.691-0.921l12.836-0.362-12.343-0.362c0.494-0.559 0.889-1.020 1.185-1.316-0.625 0-1.218-0.033-1.744-0.033-0.856-0.033-1.547-0.066-2.041-0.066-0.494-0.033-0.757-0.033-0.757-0.033s0.296 0 0.757-0.033c0.494-0.033 1.185-0.066 2.041-0.066 0.856-0.033 1.81-0.066 2.864-0.066 1.053-0.033 2.172-0.033 3.291-0.033s2.238 0 3.291 0.033c1.053 0 2.041 0.033 2.864 0.066 0.856 0.033 1.547 0.066 2.041 0.066 0.494 0.033 0.757 0.033 0.757 0.033s-0.296 0-0.757 0.033c-0.494 0.033-1.185 0.066-2.041 0.066-0.231 0-0.494 0-0.757 0.033 1.382 0.658 3.917 1.677 6.649 1.677 4.114 0 18.267 0 22.809 0 3.489 0 5.398-0.756 6.089-1.118l8.459 5.328zM6.583 26.738c-1.81 0-3.258-1.48-3.258-3.256 0-0.723 0.23-1.381 0.625-1.94-0.132 0.197-0.23 0.395-0.296 0.559-0.066 0.131-0.099 0.263-0.132 0.395s-0.033 0.23-0.066 0.329-0.033 0.362 0 0.46c0 0.099 0 0.164 0 0.164s0-0.066 0.033-0.164c0-0.099 0.033-0.263 0.099-0.46 0.033-0.099 0.066-0.197 0.099-0.296 0.066-0.099 0.099-0.23 0.165-0.329 0.132-0.23 0.296-0.493 0.527-0.723s0.527-0.428 0.856-0.592c0.329-0.164 0.724-0.263 1.119-0.263 0.132 0 0.296 0 0.428 0-0.066 0-0.132 0-0.197 0-1.58 0-2.864 1.283-2.864 2.861s1.284 2.861 2.864 2.861 2.864-1.283 2.864-2.861c0-0.099 0-0.197 0-0.296 0 0.066 0 0.131 0.033 0.23 0 0.099 0 0.197 0 0.296-0.033 0.395-0.132 0.789-0.296 1.118s-0.362 0.625-0.592 0.855c-0.23 0.23-0.494 0.428-0.724 0.526-0.132 0.066-0.23 0.099-0.329 0.164-0.099 0.033-0.23 0.066-0.296 0.099-0.197 0.033-0.329 0.099-0.461 0.099-0.099 0-0.165 0.033-0.165 0.033s0.066 0 0.165 0c0.099 0 0.263 0 0.461-0.033 0.099-0.033 0.197-0.033 0.329-0.066s0.263-0.066 0.395-0.132c0.198-0.066 0.395-0.164 0.592-0.296-0.592 0.428-1.251 0.658-1.975 0.658zM81.824 24.995c-0.165 0.395-0.362 0.724-0.56 0.954s-0.362 0.362-0.494 0.46c-0.131 0.099-0.197 0.132-0.197 0.132s0.066-0.033 0.165-0.165c0.099-0.099 0.263-0.263 0.428-0.493s0.329-0.559 0.461-0.954c0.131-0.395 0.197-0.888 0.165-1.414s-0.165-1.118-0.461-1.677c-0.296-0.559-0.757-1.118-1.415-1.414-0.329-0.164-0.691-0.263-1.086-0.296s-0.79-0.033-1.218 0c-0.856 0.066-1.744 0.197-2.666 0.362-1.843 0.296-3.884 0.724-6.089 0.756-2.172 0.033-4.443 0.033-6.813 0.033-4.739 0-9.775 0-14.811 0-5.036-0.033-10.072-0.033-14.811-0.066s-9.15-0.066-12.935-0.099c-1.876 0-3.621 0-5.168-0.132-1.547-0.099-2.864-0.296-3.95-0.493s-1.942-0.362-2.534-0.395c-0.296-0.033-0.527-0.033-0.658-0.033-0.165 0-0.23 0-0.23 0s0.066 0 0.23 0c0.165 0 0.395 0 0.658 0.033 0.592 0.033 1.448 0.164 2.534 0.362 1.086 0.164 2.403 0.362 3.95 0.428s3.259 0.033 5.168 0.033c3.785-0.033 8.196-0.066 12.935-0.099s9.776-0.033 14.811-0.066c5.036 0 10.072 0 14.811 0 2.37 0 4.641 0 6.813 0.033 2.139 0 4.147-0.362 6.023-0.658 0.921-0.132 1.843-0.263 2.699-0.329 0.428-0.033 0.856-0.033 1.284 0 0.428 0.066 0.823 0.164 1.185 0.362 0.724 0.362 1.251 0.954 1.547 1.579s0.428 1.25 0.461 1.809c0 0.526-0.066 1.019-0.23 1.447zM35.448 13.484v0.691c-0.231 0-0.461 0-0.658 0-0.856 0.033-1.317 0.033-1.317 0.033s0.494 0 1.317 0.033c0.197 0 0.428 0 0.658 0v0.23h-1.975v0.855h1.975v0.132h-2.107v-1.973h2.107zM4.246 23.482c0-1.283 1.053-2.302 2.304-2.302 1.284 0 2.304 1.052 2.304 2.302 0 1.283-1.053 2.302-2.304 2.302-1.251 0.033-2.304-1.019-2.304-2.302zM13.758 25.85c0-1.612 1.317-2.927 2.929-2.927s2.929 1.315 2.929 2.927c0 1.612-1.317 2.927-2.929 2.927s-2.929-1.283-2.929-2.927zM65.927 25.85c0-1.612 1.317-2.927 2.929-2.927s2.929 1.315 2.929 2.927-1.317 2.927-2.929 2.927c-1.613 0.033-2.929-1.283-2.929-2.927zM80.705 23.482c0 1.085-0.889 1.94-1.942 1.94-1.086 0-1.942-0.888-1.942-1.94 0-1.085 0.889-1.94 1.942-1.94 1.086 0 1.942 0.888 1.942 1.94zM78.632 26.376c-1.58 0-2.897-1.283-2.897-2.894 0-1.447 1.053-2.631 2.436-2.828-0.658 0.164-1.185 0.526-1.514 0.954-0.198 0.23-0.329 0.493-0.428 0.724s-0.132 0.46-0.165 0.625c0 0.165-0.033 0.329 0 0.395 0 0.099 0 0.131 0 0.131s0-0.033 0.033-0.131c0-0.099 0.033-0.23 0.099-0.395s0.132-0.362 0.23-0.559c0.099-0.197 0.263-0.428 0.461-0.592 0.066-0.066 0.165-0.131 0.263-0.197-0.527 0.46-0.889 1.151-0.889 1.908 0 1.381 1.119 2.499 2.501 2.499 0.757 0 1.448-0.362 1.909-0.888-0.066 0.099-0.132 0.165-0.231 0.263-0.197 0.197-0.395 0.362-0.592 0.46-0.197 0.131-0.395 0.197-0.559 0.23s-0.296 0.066-0.395 0.099c-0.099 0-0.132 0.033-0.132 0.033s0.066 0 0.132 0c0.099 0 0.231 0 0.395 0 0.164-0.033 0.395-0.066 0.625-0.164 0.132-0.033 0.231-0.099 0.362-0.165-0.461 0.296-1.020 0.493-1.645 0.493zM26.792 25.85c0-1.612 1.317-2.927 2.929-2.927s2.929 1.315 2.929 2.927c0 1.612-1.317 2.927-2.929 2.927s-2.929-1.283-2.929-2.927zM39.826 25.85c0-1.612 1.317-2.927 2.929-2.927s2.929 1.315 2.929 2.927c0 1.612-1.317 2.927-2.929 2.927-1.613 0.033-2.929-1.283-2.929-2.927zM52.893 25.85c0-1.612 1.317-2.927 2.929-2.927s2.929 1.315 2.929 2.927c0 1.612-1.316 2.927-2.929 2.927-1.613 0.033-2.929-1.283-2.929-2.927zM55.822 29.895c0 0 0.066 0 0.23 0 0.132 0 0.329 0 0.625 0 0.132-0.033 0.263-0.033 0.428-0.066s0.329-0.066 0.494-0.165c0.263-0.099 0.527-0.23 0.79-0.395-0.724 0.526-1.58 0.855-2.567 0.855-2.337 0-4.279-1.907-4.279-4.275 0-0.954 0.329-1.842 0.856-2.532-0.165 0.263-0.296 0.526-0.395 0.756-0.066 0.164-0.099 0.362-0.165 0.493-0.033 0.164-0.066 0.296-0.066 0.428-0.033 0.263-0.033 0.46 0 0.625 0 0.131 0 0.23 0 0.23s0-0.066 0.033-0.197c0-0.132 0.066-0.329 0.131-0.592 0.033-0.131 0.099-0.263 0.132-0.395 0.066-0.131 0.132-0.296 0.231-0.428 0.165-0.296 0.395-0.625 0.691-0.921 0.099-0.099 0.197-0.197 0.296-0.263-0.79 0.691-1.283 1.677-1.283 2.796 0 2.072 1.679 3.749 3.752 3.749 1.119 0 2.139-0.493 2.831-1.283-0.099 0.099-0.164 0.23-0.263 0.329-0.296 0.296-0.593 0.526-0.922 0.691-0.131 0.099-0.296 0.131-0.428 0.23-0.132 0.066-0.263 0.099-0.395 0.131-0.23 0.066-0.428 0.132-0.592 0.132-0.099 0.066-0.165 0.066-0.165 0.066zM42.788 29.895c0 0 0.066 0 0.23 0 0.132 0 0.329 0 0.625 0 0.132-0.033 0.263-0.033 0.428-0.066s0.329-0.066 0.494-0.165c0.263-0.099 0.527-0.23 0.79-0.395-0.724 0.526-1.58 0.855-2.567 0.855-2.337 0-4.279-1.907-4.279-4.275 0-0.954 0.329-1.842 0.856-2.532-0.165 0.263-0.296 0.526-0.395 0.756-0.066 0.164-0.099 0.362-0.165 0.493-0.033 0.164-0.066 0.296-0.066 0.428-0.033 0.263-0.033 0.46 0 0.625 0 0.131 0 0.23 0 0.23s0-0.066 0.033-0.197c0-0.132 0.066-0.329 0.132-0.592 0.033-0.131 0.099-0.263 0.131-0.395 0.066-0.131 0.132-0.296 0.231-0.428 0.165-0.296 0.395-0.625 0.691-0.921 0.099-0.099 0.197-0.197 0.296-0.263-0.79 0.691-1.284 1.677-1.284 2.796 0 2.072 1.679 3.749 3.752 3.749 1.119 0 2.139-0.493 2.831-1.283-0.099 0.099-0.165 0.23-0.263 0.329-0.296 0.296-0.592 0.526-0.921 0.691-0.132 0.099-0.296 0.131-0.428 0.23-0.132 0.066-0.263 0.099-0.395 0.131-0.231 0.066-0.428 0.132-0.593 0.132-0.099 0.066-0.165 0.066-0.165 0.066zM29.721 29.895c0 0 0.066 0 0.231 0 0.131 0 0.329 0 0.625 0 0.132-0.033 0.263-0.033 0.428-0.066s0.329-0.066 0.494-0.165c0.263-0.099 0.527-0.23 0.79-0.395-0.724 0.526-1.58 0.855-2.567 0.855-2.337 0-4.279-1.907-4.279-4.275 0-0.954 0.329-1.842 0.856-2.532-0.165 0.263-0.296 0.526-0.395 0.756-0.066 0.164-0.099 0.362-0.165 0.493-0.033 0.164-0.066 0.296-0.066 0.428 0 0.296 0 0.493 0 0.658 0 0.131 0 0.23 0 0.23s0-0.066 0.033-0.197c0-0.132 0.066-0.329 0.132-0.592 0.033-0.131 0.099-0.263 0.132-0.395 0.066-0.131 0.131-0.296 0.23-0.428 0.165-0.296 0.395-0.625 0.691-0.921 0.099-0.099 0.197-0.197 0.296-0.263-0.79 0.691-1.284 1.677-1.284 2.796 0 2.072 1.679 3.749 3.752 3.749 1.119 0 2.139-0.493 2.831-1.283-0.099 0.099-0.165 0.23-0.263 0.329-0.296 0.296-0.592 0.526-0.921 0.691-0.132 0.099-0.296 0.131-0.428 0.23-0.132 0.066-0.263 0.099-0.395 0.131-0.231 0.066-0.428 0.132-0.593 0.132-0.066 0.033-0.165 0.033-0.165 0.033zM36.008 15.457v-0.132h12.145v0.132h-12.145zM36.008 14.471v-0.23c0.658 0 1.415 0.033 2.271 0.033 1.448 0 3.127 0.033 4.937 0.033 1.58 0 3.258 0 4.937 0v0.164h-12.145zM48.713 14.339c0.066 0 0.099 0 0.165 0 1.909 0 3.851 0 5.661-0.033 1.81 0 3.489-0.033 4.937-0.033 0.494 0 0.987 0 1.415-0.033v0.23h-12.178v-0.132zM60.858 15.326v0.132h-12.145v-0.132h12.145zM19.123 15.457v-0.132h4.279v0.132h-4.279zM19.123 14.471v-0.197c0.198 0 0.428 0.033 0.691 0.033 0.56 0 1.185 0.033 1.876 0.033 0.56 0 1.119 0 1.712 0v0.132h-4.279zM19.123 14.175v-0.658h4.279v0.592c-0.593 0-1.152 0-1.712 0-0.691 0-1.317 0.033-1.876 0.033-0.263 0-0.494 0-0.691 0.033zM23.928 13.484h4.279v0.658c-0.132 0-0.23 0-0.362 0-0.56 0-1.185-0.033-1.876-0.033-0.658 0-1.35 0-2.041 0v-0.625zM28.207 14.273v0.197h-4.279v-0.132c0.691 0 1.383 0 2.041 0 0.691 0 1.316-0.033 1.876-0.033 0.132-0.033 0.23-0.033 0.362-0.033zM28.207 15.326v0.132h-4.279v-0.132h4.279zM9.413 23.12v0.033c0-0.033 0-0.033 0-0.033 0-0.033 0-0.033 0 0zM17.938 13.484h0.625v0.691c-0.033 0-0.066 0-0.066 0-0.329 0.033-0.494 0.033-0.494 0.033s0.198 0 0.494 0.033c0.033 0 0.066 0 0.066 0v0.23h-0.592v0.855h0.592v0.132h-0.625v-1.973zM29.688 15.457h-0.955v-0.132h0.922v-0.855h-0.922v-0.23c0.165 0 0.296 0 0.395-0.033 0.329-0.033 0.494-0.033 0.494-0.033s-0.198 0-0.494-0.033c-0.132 0-0.263 0-0.395-0.033v-0.625h0.955v1.973zM36.008 13.484h12.145v0.592c-1.679 0-3.357 0-4.937 0-1.81 0-3.489 0.033-4.937 0.033-0.856 0-1.613 0.033-2.271 0.033v-0.658zM48.713 13.484h12.145v0.658c-0.428 0-0.921 0-1.415-0.033-1.448 0-3.127-0.033-4.937-0.033s-3.719 0-5.661-0.033c-0.066 0-0.099 0-0.165 0v-0.559h0.033zM61.385 13.484h2.962v1.973h-2.962v-0.132h2.831v-0.855h-2.831v-0.23c0.593 0 1.086 0 1.514-0.033 0.856-0.033 1.316-0.033 1.316-0.033s-0.493 0-1.316-0.033c-0.428 0-0.922 0-1.514-0.033v-0.625zM83.832 19.634l-1.251 2.467c-0.527-1.677-1.876-3.026-4.246-3.026-1.317 0-2.765 0.164-4.279 0.362-1.711 0.197-3.456 0.428-5.266 0.428h-51.741c-2.765 0-4.509-0.197-5.892-0.428 0.263-0.921 0.592-1.71 0.889-2.236h69.251l2.534 2.434zM68.856 29.895c0 0 0.066 0 0.231 0 0.132 0 0.329 0 0.625 0 0.131-0.033 0.263-0.033 0.428-0.066s0.329-0.066 0.494-0.165c0.263-0.099 0.527-0.23 0.79-0.395-0.724 0.526-1.58 0.855-2.567 0.855-2.337 0-4.279-1.907-4.279-4.275 0-0.954 0.329-1.842 0.856-2.532-0.165 0.263-0.296 0.526-0.395 0.756-0.066 0.164-0.099 0.362-0.165 0.493-0.033 0.164-0.066 0.296-0.066 0.428-0.033 0.263-0.033 0.46 0 0.625 0 0.131 0 0.23 0 0.23s0-0.066 0.033-0.197c0-0.132 0.066-0.329 0.132-0.592 0.033-0.131 0.099-0.263 0.132-0.395 0.066-0.131 0.132-0.296 0.23-0.428 0.165-0.296 0.395-0.625 0.691-0.921 0.099-0.099 0.198-0.197 0.296-0.263-0.79 0.691-1.284 1.677-1.284 2.796 0 2.072 1.679 3.749 3.752 3.749 1.119 0 2.139-0.493 2.831-1.283-0.099 0.099-0.165 0.23-0.263 0.329-0.296 0.296-0.593 0.526-0.922 0.691-0.132 0.099-0.296 0.131-0.428 0.23-0.131 0.066-0.263 0.099-0.395 0.131-0.23 0.066-0.428 0.132-0.592 0.132-0.099 0.066-0.165 0.066-0.165 0.066zM16.687 29.895c0 0 0.066 0 0.23 0 0.132 0 0.329 0 0.625 0 0.132-0.033 0.263-0.033 0.428-0.066s0.329-0.066 0.494-0.165c0.263-0.099 0.527-0.23 0.79-0.395-0.724 0.526-1.58 0.855-2.567 0.855-2.337 0-4.279-1.907-4.279-4.275 0-0.954 0.329-1.842 0.856-2.532-0.165 0.263-0.296 0.526-0.395 0.756-0.066 0.164-0.099 0.362-0.165 0.493-0.033 0.164-0.066 0.296-0.066 0.428-0.033 0.263-0.033 0.46 0 0.625 0 0.131 0 0.23 0 0.23s0-0.066 0.033-0.197c0-0.132 0.066-0.329 0.132-0.592 0.033-0.131 0.099-0.263 0.132-0.395 0.066-0.131 0.132-0.296 0.23-0.428 0.165-0.296 0.395-0.625 0.691-0.921 0.099-0.099 0.197-0.197 0.296-0.263-0.79 0.691-1.284 1.677-1.284 2.796 0 2.072 1.679 3.749 3.752 3.749 1.119 0 2.139-0.493 2.831-1.283-0.099 0.099-0.165 0.23-0.263 0.329-0.296 0.296-0.592 0.526-0.922 0.691-0.132 0.099-0.296 0.131-0.428 0.23-0.132 0.066-0.263 0.099-0.395 0.131-0.23 0.066-0.428 0.132-0.592 0.132-0.099 0.066-0.165 0.066-0.165 0.066zM40.912 1.842h-0.625c0.033-0.164 0.165-0.263 0.296-0.263 0.197-0.033 0.296 0.099 0.329 0.263zM60.529 1.875c-0.197-0.033-0.395-0.033-0.625-0.033 0.033-0.164 0.165-0.263 0.296-0.263 0.165-0.033 0.296 0.132 0.329 0.296zM71.884 13.944c0 0-0.033-0.066-0.099-0.197s-0.132-0.296-0.23-0.493c-0.099-0.197-0.231-0.428-0.362-0.658-0.066-0.132-0.132-0.23-0.231-0.329s-0.165-0.197-0.296-0.263c-0.033 0-0.066-0.033-0.066-0.033h-0.066c-0.066 0-0.132 0-0.231 0-0.132 0-0.296 0-0.428 0-0.263 0-0.527-0.033-0.757-0.033s-0.395-0.033-0.527-0.066c-0.132 0-0.197-0.033-0.197-0.033s0.033 0 0.066 0c0.033 0 0.099 0 0.165-0.033 0.132 0 0.329-0.033 0.527-0.066 0.231-0.033 0.494-0.033 0.757-0.033 0.132 0 0.296 0 0.428 0 0.066 0 0.132 0 0.231 0h0.066c0.033 0 0.033 0 0.066 0 0.066 0 0.099 0.033 0.131 0.066 0.165 0.099 0.263 0.23 0.362 0.329 0.099 0.132 0.165 0.263 0.23 0.395 0.132 0.263 0.23 0.493 0.296 0.724 0.099 0.428 0.165 0.724 0.165 0.724zM74.517 13.024c0-0.329 0.033-0.691 0.066-0.954s0.066-0.428 0.066-0.428c0 0 0.033 0.164 0.066 0.428s0.066 0.592 0.066 0.954c0 0.329-0.033 0.691-0.066 0.954s-0.066 0.428-0.066 0.428c0 0-0.033-0.164-0.066-0.428-0.066-0.263-0.066-0.592-0.066-0.954zM71.72 30.388c1.185-0.724 2.041-1.908 2.37-3.289h2.863c0.395 0.197 0.823 0.329 1.284 0.362-0.197 0.099-0.362 0.197-0.559 0.263l-0.066-0.099c-0.066-0.164-0.263-0.23-0.428-0.164l-0.362 0.164c-0.165 0.066-0.231 0.263-0.165 0.428l0.066 0.132c-0.856 0.395-1.745 0.822-2.567 1.184l-0.099-0.197c-0.066-0.164-0.263-0.23-0.428-0.164l-0.362 0.164c-0.165 0.066-0.23 0.263-0.165 0.428l0.066 0.165c-0.56 0.263-1.086 0.493-1.448 0.625zM8.755 28.645l0.099-0.263c0.066-0.164-0.033-0.329-0.197-0.395l-0.395-0.131c-0.165-0.066-0.329 0.033-0.395 0.197l-0.099 0.23c-0.395-0.131-0.757-0.296-1.119-0.428 0.889-0.033 1.679-0.296 2.37-0.756h2.436c0.362 1.48 1.317 2.73 2.6 3.453-0.592-0.164-1.086-0.395-1.712-0.625l0.099-0.23c0.066-0.164-0.033-0.329-0.197-0.395l-0.395-0.131c-0.165-0.066-0.329 0.033-0.395 0.197l-0.099 0.263c-0.691-0.329-1.646-0.625-2.6-0.987z"></path>
</symbol>
<symbol id="icon-timer" viewBox="0 0 25 32">
<path d="M18.005 14.508c3.229-1.905 5.233-5.42 5.233-9.175v-1.524h1.524v-3.048h-24.381v3.048h1.524v1.524c0 3.755 2.004 7.27 5.233 9.175 0.539 0.317 0.862 0.831 0.862 1.371v0.241c0 0.539-0.323 1.051-0.862 1.371-3.229 1.905-5.233 5.42-5.233 9.175v1.524h-1.524v3.048h24.381v-3.048h-1.524v-1.524c0-3.755-2.004-7.27-5.231-9.173-0.541-0.32-0.864-0.834-0.864-1.373v-0.241c0-0.541 0.323-1.055 0.863-1.371zM16.459 20.117c2.303 1.359 3.732 3.867 3.732 6.549v1.524h-15.238v-1.524c0-2.682 1.429-5.19 3.733-6.551 1.48-0.873 2.362-2.368 2.362-3.995v-0.241c0-1.629-0.884-3.125-2.363-3.997-2.302-1.359-3.732-3.867-3.732-6.549v-1.524h15.238v1.524c0 2.682-1.429 5.19-3.732 6.549-1.48 0.872-2.363 2.368-2.363 3.997v0.241c0 1.627 0.882 3.122 2.363 3.997z"></path>
</symbol>
<symbol id="icon-arrows" viewBox="0 0 32 32">
<path d="M26.667 9.333h-4v-4c0-1.471-1.196-2.667-2.667-2.667h-8c-1.471 0-2.667 1.196-2.667 2.667v4h-4c-1.471 0-2.667 1.196-2.667 2.667v8c0 1.471 1.196 2.667 2.667 2.667h4v4c0 1.471 1.196 2.667 2.667 2.667h8c1.471 0 2.667-1.196 2.667-2.667v-4h4c1.471 0 2.667-1.196 2.667-2.667v-8c0-1.471-1.196-2.667-2.667-2.667zM26.667 20h-6.667v5.333h0.001v1.333h-8.001v-6.667h-6.667v-8h6.667v-6.667h8v6.667h6.667v8z"></path>
<path d="M10.667 18.667v-5.333l-4 2.667 4 2.667zM21.333 18.667l4-2.667-4-2.667v5.333zM13.333 10.667h5.333l-2.667-4-2.667 4zM16 25.333l2.667-4h-5.333l2.667 4z"></path>
<path d="M16 18.667c1.473 0 2.667-1.194 2.667-2.667s-1.194-2.667-2.667-2.667c-1.473 0-2.667 1.194-2.667 2.667s1.194 2.667 2.667 2.667z"></path>
</symbol>
<symbol id="icon-gamepad" viewBox="0 0 32 32">
<path d="M29.305 11.536c-0.236-3.477-3.152-6.203-6.639-6.203h-13.333c-3.572 0-6.477 2.768-6.649 6.316-0.013 0.105-0.017 0.215-0.017 0.337v10.013c0 1.233 0.497 2.437 1.363 3.301 0.867 0.868 2.071 1.365 3.304 1.365 1.905 0 3.099-1.415 4.252-2.783 0.424-0.503 0.861-1.023 1.333-1.471 0.316-0.301 1.469-0.863 2.052-1.001 0.336-0.079 1.724-0.077 2.055-0.001 0.585 0.139 1.739 0.701 2.055 1.001 0.472 0.449 0.909 0.969 1.333 1.472 1.155 1.368 2.348 2.783 4.253 2.783 1.233 0 2.437-0.497 3.301-1.363 0.868-0.867 1.365-2.071 1.365-3.304v-10c0-0.127-0.005-0.24-0.019-0.347-0.003-0.037-0.007-0.076-0.009-0.117zM26.667 22c0 0.529-0.212 1.045-0.584 1.417-0.371 0.371-0.887 0.583-1.416 0.583-0.667 0-1.384-0.851-2.215-1.836-0.448-0.529-0.956-1.132-1.532-1.683-0.769-0.732-2.428-1.464-3.281-1.665-0.555-0.129-1.265-0.149-1.639-0.149s-1.084 0.020-1.64 0.151c-0.851 0.2-2.509 0.932-3.279 1.665-0.577 0.549-1.084 1.151-1.532 1.681-0.832 0.985-1.549 1.836-2.216 1.836-0.529 0-1.045-0.212-1.417-0.584-0.371-0.371-0.583-0.887-0.583-1.416l-0.012-9.971c0.013-0.068 0.021-0.137 0.024-0.207 0.080-2.143 1.832-3.823 3.988-3.823h13.333c2.089 0 3.836 1.633 3.973 3.627 0 0.080 0.007 0.16 0.013 0.16 0 0.085-0.004 0.129 0.013 0.213v10z"></path>
<path d="M21.333 17.333c0.736 0 1.333-0.597 1.333-1.333s-0.597-1.333-1.333-1.333c-0.736 0-1.333 0.597-1.333 1.333s0.597 1.333 1.333 1.333z"></path>
<path d="M24 14.667c0.736 0 1.333-0.597 1.333-1.333s-0.597-1.333-1.333-1.333-1.333 0.597-1.333 1.333c0 0.736 0.597 1.333 1.333 1.333z"></path>
<path d="M21.333 12c0.736 0 1.333-0.597 1.333-1.333s-0.597-1.333-1.333-1.333c-0.736 0-1.333 0.597-1.333 1.333s0.597 1.333 1.333 1.333z"></path>
<path d="M18.667 14.667c0.736 0 1.333-0.597 1.333-1.333s-0.597-1.333-1.333-1.333-1.333 0.597-1.333 1.333c0 0.736 0.597 1.333 1.333 1.333z"></path>
<path d="M10.667 16c1.473 0 2.667-1.194 2.667-2.667s-1.194-2.667-2.667-2.667c-1.473 0-2.667 1.194-2.667 2.667s1.194 2.667 2.667 2.667z"></path>
</symbol>
</defs>
</svg>
